<svg xmlns="http://www.w3.org/2000/svg" width="18px" height="18px" viewBox="0 0 18 18"><rect x="2" y="6" width="5" height="2" rx="0.4" style="fill:#fff;opacity:0.7000000000000001"/><path d="M8.6,5H3.4A.4.4,0,0,1,3,4.6V3.4A.4.4,0,0,1,3.4,3H8.6a.4.4,0,0,1,.4.4V4.6A.4.4,0,0,1,8.6,5Zm0,1H4.4a.4.4,0,0,0-.4.4V7.6a.4.4,0,0,0,.4.4H8.6A.4.4,0,0,0,9,7.6V6.4A.4.4,0,0,0,8.6,6Zm0,5H3.4a.4.4,0,0,0-.4.4v1.2a.4.4,0,0,0,.4.4H8.6a.4.4,0,0,0,.4-.4V11.4A.4.4,0,0,0,8.6,11Zm0,4H3.4a.4.4,0,0,0-.4.4v1.2a.4.4,0,0,0,.4.4H8.6a.4.4,0,0,0,.4-.4V15.4A.4.4,0,0,0,8.6,15ZM17.5,1H2.5A1.5,1.5,0,0,0,1,2.5v15A1.5,1.5,0,0,0,2.5,19h15A1.5,1.5,0,0,0,19,17.5V2.5A1.5,1.5,0,0,0,17.5,1ZM2,17.5V2.5A.5.5,0,0,1,2.5,2H10V18H2.5A.5.5,0,0,1,2,17.5Zm16,0a.5.5,0,0,1-.5.5H11V2h6.5a.5.5,0,0,1,.5.5Z" transform="translate(-1 -1)" style="fill:#fff"/></svg>